<mxfile host="65bd71144e">
    <diagram id="af0zJv1sFqZIyem5Vi3e" name="ページ1">
        <mxGraphModel dx="1159" dy="779" grid="1" gridSize="10" guides="1" tooltips="1" connect="1" arrows="1" fold="1" page="1" pageScale="1" pageWidth="827" pageHeight="1169" math="0" shadow="0">
            <root>
                <mxCell id="0"/>
                <mxCell id="1" parent="0"/>
                <mxCell id="30" value="VPC&amp;nbsp;&lt;span style=&quot;border-color: var(--border-color); color: rgb(212, 212, 212); font-family: Consolas, &amp;quot;Courier New&amp;quot;, monospace; background-color: rgb(30, 30, 30); font-size: 14px;&quot;&gt;[&lt;/span&gt;&lt;span style=&quot;border-color: var(--border-color); font-family: Consolas, &amp;quot;Courier New&amp;quot;, monospace; background-color: rgb(30, 30, 30); color: rgb(206, 145, 120); font-size: 14px;&quot;&gt;&quot;10.0.0.0/21&quot;]&lt;/span&gt;" style="sketch=0;outlineConnect=0;gradientColor=none;html=1;whiteSpace=wrap;fontSize=14;fontStyle=1;shape=mxgraph.aws4.group;grIcon=mxgraph.aws4.group_vpc;strokeColor=#000000;fillColor=none;verticalAlign=top;align=left;spacingLeft=30;fontColor=#879196;dashed=0;rounded=0;strokeWidth=3;" parent="1" vertex="1">
                    <mxGeometry x="210" y="10" width="650" height="760" as="geometry"/>
                </mxCell>
                <mxCell id="153" value="AZ2" style="fillColor=none;strokeColor=default;dashed=1;verticalAlign=bottom;fontStyle=1;fontColor=#000000;rounded=0;align=center;fontSize=14;strokeWidth=2;" vertex="1" parent="1">
                    <mxGeometry x="230" y="420" width="600" height="320" as="geometry"/>
                </mxCell>
                <mxCell id="73" value="AZ1" style="fillColor=none;strokeColor=default;dashed=1;verticalAlign=top;fontStyle=1;fontColor=#000000;rounded=0;align=center;fontSize=14;strokeWidth=2;" parent="1" vertex="1">
                    <mxGeometry x="230" y="50" width="600" height="330" as="geometry"/>
                </mxCell>
                <mxCell id="69" value="Public subnet 2&lt;br style=&quot;font-size: 13px;&quot;&gt;&amp;nbsp;&amp;nbsp;&lt;span style=&quot;border-color: var(--border-color); color: rgb(212, 212, 212); font-family: Consolas, &amp;quot;Courier New&amp;quot;, monospace; background-color: rgb(30, 30, 30); font-size: 13px;&quot;&gt;[&lt;/span&gt;&lt;span style=&quot;border-color: var(--border-color); font-family: Consolas, &amp;quot;Courier New&amp;quot;, monospace; background-color: rgb(30, 30, 30); color: rgb(206, 145, 120); font-size: 13px;&quot;&gt;&quot;10.0.2.0/24&quot;]&lt;/span&gt;" style="points=[[0,0],[0.25,0],[0.5,0],[0.75,0],[1,0],[1,0.25],[1,0.5],[1,0.75],[1,1],[0.75,1],[0.5,1],[0.25,1],[0,1],[0,0.75],[0,0.5],[0,0.25]];outlineConnect=0;gradientColor=none;html=1;whiteSpace=wrap;fontSize=13;fontStyle=1;container=1;pointerEvents=0;collapsible=0;recursiveResize=0;shape=mxgraph.aws4.group;grIcon=mxgraph.aws4.group_security_group;grStroke=0;strokeColor=#248814;fillColor=#E9F3E6;verticalAlign=bottom;align=left;spacingLeft=30;fontColor=#248814;dashed=0;" parent="1" vertex="1">
                    <mxGeometry x="250" y="430" width="350" height="290" as="geometry"/>
                </mxCell>
                <mxCell id="141" value="" style="endArrow=classic;html=1;exitX=0.5;exitY=1;exitDx=0;exitDy=0;exitPerimeter=0;entryX=0;entryY=0.5;entryDx=0;entryDy=0;entryPerimeter=0;strokeWidth=3;" edge="1" parent="69" target="122">
                    <mxGeometry relative="1" as="geometry">
                        <mxPoint x="149" y="10.310000000000002" as="sourcePoint"/>
                        <mxPoint x="227.5" y="73.5" as="targetPoint"/>
                        <Array as="points">
                            <mxPoint x="148" y="60"/>
                        </Array>
                    </mxGeometry>
                </mxCell>
                <mxCell id="142" value="HTTP" style="edgeLabel;resizable=0;html=1;align=center;verticalAlign=middle;fillColor=#cf1794;gradientColor=#2004f6;fontSize=12;" connectable="0" vertex="1" parent="141">
                    <mxGeometry relative="1" as="geometry">
                        <mxPoint x="16" as="offset"/>
                    </mxGeometry>
                </mxCell>
                <mxCell id="16" value="Private subnet 1&amp;nbsp;&lt;br style=&quot;font-size: 13px;&quot;&gt;&lt;span style=&quot;color: rgb(36, 136, 20); font-size: 13px;&quot;&gt;&amp;nbsp;&lt;/span&gt;&lt;span style=&quot;border-color: var(--border-color); color: rgb(212, 212, 212); font-family: Consolas, &amp;quot;Courier New&amp;quot;, monospace; background-color: rgb(30, 30, 30); font-size: 13px;&quot;&gt;[&lt;/span&gt;&lt;span style=&quot;border-color: var(--border-color); font-family: Consolas, &amp;quot;Courier New&amp;quot;, monospace; background-color: rgb(30, 30, 30); color: rgb(206, 145, 120); font-size: 13px;&quot;&gt;&quot;10.0.3.0/24&quot;]&lt;/span&gt;" style="points=[[0,0],[0.25,0],[0.5,0],[0.75,0],[1,0],[1,0.25],[1,0.5],[1,0.75],[1,1],[0.75,1],[0.5,1],[0.25,1],[0,1],[0,0.75],[0,0.5],[0,0.25]];outlineConnect=0;gradientColor=none;html=1;whiteSpace=wrap;fontSize=13;fontStyle=1;container=0;pointerEvents=0;collapsible=0;recursiveResize=0;shape=mxgraph.aws4.group;grIcon=mxgraph.aws4.group_security_group;grStroke=0;strokeColor=#147EBA;fillColor=#E6F2F8;verticalAlign=top;align=right;spacingLeft=30;fontColor=#147EBA;dashed=0;" parent="1" vertex="1">
                    <mxGeometry x="610" y="80" width="192" height="292" as="geometry"/>
                </mxCell>
                <mxCell id="13" value="Public subnet 1&lt;br style=&quot;font-size: 13px;&quot;&gt;&amp;nbsp;&amp;nbsp;&lt;span style=&quot;border-color: var(--border-color); color: rgb(212, 212, 212); font-family: Consolas, &amp;quot;Courier New&amp;quot;, monospace; background-color: rgb(30, 30, 30); font-size: 13px;&quot;&gt;[&lt;/span&gt;&lt;span style=&quot;border-color: var(--border-color); font-family: Consolas, &amp;quot;Courier New&amp;quot;, monospace; background-color: rgb(30, 30, 30); color: rgb(206, 145, 120); font-size: 13px;&quot;&gt;&quot;10.0.1.0/24&quot;]&lt;/span&gt;" style="points=[[0,0],[0.25,0],[0.5,0],[0.75,0],[1,0],[1,0.25],[1,0.5],[1,0.75],[1,1],[0.75,1],[0.5,1],[0.25,1],[0,1],[0,0.75],[0,0.5],[0,0.25]];outlineConnect=0;gradientColor=none;html=1;whiteSpace=wrap;fontSize=13;fontStyle=1;container=1;pointerEvents=0;collapsible=0;recursiveResize=0;shape=mxgraph.aws4.group;grIcon=mxgraph.aws4.group_security_group;grStroke=0;strokeColor=#248814;fillColor=#E9F3E6;verticalAlign=top;align=left;spacingLeft=30;fontColor=#248814;dashed=0;" parent="1" vertex="1">
                    <mxGeometry x="250" y="80" width="350" height="290" as="geometry"/>
                </mxCell>
                <mxCell id="149" value="AutoScalingGroup" style="verticalAlign=top;fontStyle=1;strokeWidth=3;fillColor=none;strokeColor=#FF8000;fontSize=16;" vertex="1" parent="13">
                    <mxGeometry x="180" y="10" width="160" height="620" as="geometry"/>
                </mxCell>
                <mxCell id="7" value="SecurityGroup" style="rounded=1;arcSize=10;dashed=1;strokeColor=#ff0000;fillColor=none;gradientColor=none;dashPattern=8 4;strokeWidth=2;verticalAlign=top;container=0;" parent="13" vertex="1">
                    <mxGeometry x="200" y="60" width="130" height="520" as="geometry"/>
                </mxCell>
                <mxCell id="119" value="" style="group" vertex="1" connectable="0" parent="13">
                    <mxGeometry x="229.5" y="378" width="71" height="189" as="geometry"/>
                </mxCell>
                <mxCell id="120" value="" style="group" vertex="1" connectable="0" parent="119">
                    <mxGeometry width="71" height="81" as="geometry"/>
                </mxCell>
                <mxCell id="121" value="" style="group" vertex="1" connectable="0" parent="120">
                    <mxGeometry width="71" height="81" as="geometry"/>
                </mxCell>
                <mxCell id="122" value="" style="sketch=0;points=[[0,0,0],[0.25,0,0],[0.5,0,0],[0.75,0,0],[1,0,0],[0,1,0],[0.25,1,0],[0.5,1,0],[0.75,1,0],[1,1,0],[0,0.25,0],[0,0.5,0],[0,0.75,0],[1,0.25,0],[1,0.5,0],[1,0.75,0]];outlineConnect=0;fontColor=#232F3E;gradientColor=#F78E04;gradientDirection=north;fillColor=#D05C17;strokeColor=#ffffff;dashed=0;verticalLabelPosition=bottom;verticalAlign=top;align=center;html=1;fontSize=12;fontStyle=0;aspect=fixed;shape=mxgraph.aws4.resourceIcon;resIcon=mxgraph.aws4.ec2;labelPosition=center;" vertex="1" parent="121">
                    <mxGeometry y="10" width="71" height="71" as="geometry"/>
                </mxCell>
                <mxCell id="123" value="" style="dashed=0;outlineConnect=0;html=1;align=center;labelPosition=center;verticalLabelPosition=bottom;verticalAlign=top;shape=mxgraph.weblogos.wordpress_2;fillColor=#00A7DA;strokeColor=none" vertex="1" parent="121">
                    <mxGeometry x="40.5" y="52" width="36" height="40" as="geometry"/>
                </mxCell>
                <mxCell id="124" value="" style="group" vertex="1" connectable="0" parent="119">
                    <mxGeometry y="108" width="71" height="81" as="geometry"/>
                </mxCell>
                <mxCell id="125" value="" style="group" vertex="1" connectable="0" parent="124">
                    <mxGeometry width="71" height="81" as="geometry"/>
                </mxCell>
                <mxCell id="126" value="" style="sketch=0;points=[[0,0,0],[0.25,0,0],[0.5,0,0],[0.75,0,0],[1,0,0],[0,1,0],[0.25,1,0],[0.5,1,0],[0.75,1,0],[1,1,0],[0,0.25,0],[0,0.5,0],[0,0.75,0],[1,0.25,0],[1,0.5,0],[1,0.75,0]];outlineConnect=0;fontColor=#232F3E;gradientColor=#F78E04;gradientDirection=north;fillColor=#D05C17;strokeColor=#ffffff;dashed=0;verticalLabelPosition=bottom;verticalAlign=top;align=center;html=1;fontSize=12;fontStyle=0;aspect=fixed;shape=mxgraph.aws4.resourceIcon;resIcon=mxgraph.aws4.ec2;labelPosition=center;" vertex="1" parent="125">
                    <mxGeometry y="10" width="71" height="71" as="geometry"/>
                </mxCell>
                <mxCell id="127" value="" style="dashed=0;outlineConnect=0;html=1;align=center;labelPosition=center;verticalLabelPosition=bottom;verticalAlign=top;shape=mxgraph.weblogos.wordpress_2;fillColor=#00A7DA;strokeColor=none" vertex="1" parent="125">
                    <mxGeometry x="35.5" y="47" width="36" height="40" as="geometry"/>
                </mxCell>
                <mxCell id="118" value="" style="group" vertex="1" connectable="0" parent="13">
                    <mxGeometry x="229.5" y="79" width="71" height="189" as="geometry"/>
                </mxCell>
                <mxCell id="111" value="" style="group" vertex="1" connectable="0" parent="118">
                    <mxGeometry width="71" height="81" as="geometry"/>
                </mxCell>
                <mxCell id="113" value="" style="group" vertex="1" connectable="0" parent="111">
                    <mxGeometry width="71" height="81" as="geometry"/>
                </mxCell>
                <mxCell id="2" value="" style="sketch=0;points=[[0,0,0],[0.25,0,0],[0.5,0,0],[0.75,0,0],[1,0,0],[0,1,0],[0.25,1,0],[0.5,1,0],[0.75,1,0],[1,1,0],[0,0.25,0],[0,0.5,0],[0,0.75,0],[1,0.25,0],[1,0.5,0],[1,0.75,0]];outlineConnect=0;fontColor=#232F3E;gradientColor=#F78E04;gradientDirection=north;fillColor=#D05C17;strokeColor=#ffffff;dashed=0;verticalLabelPosition=bottom;verticalAlign=top;align=center;html=1;fontSize=12;fontStyle=0;aspect=fixed;shape=mxgraph.aws4.resourceIcon;resIcon=mxgraph.aws4.ec2;labelPosition=center;" parent="113" vertex="1">
                    <mxGeometry y="10" width="71" height="71" as="geometry"/>
                </mxCell>
                <mxCell id="3" value="" style="dashed=0;outlineConnect=0;html=1;align=center;labelPosition=center;verticalLabelPosition=bottom;verticalAlign=top;shape=mxgraph.weblogos.wordpress_2;fillColor=#00A7DA;strokeColor=none" parent="113" vertex="1">
                    <mxGeometry x="35" y="51" width="36" height="40" as="geometry"/>
                </mxCell>
                <mxCell id="114" value="" style="group" vertex="1" connectable="0" parent="118">
                    <mxGeometry y="108" width="71" height="81" as="geometry"/>
                </mxCell>
                <mxCell id="115" value="" style="group" vertex="1" connectable="0" parent="114">
                    <mxGeometry width="71" height="81" as="geometry"/>
                </mxCell>
                <mxCell id="116" value="" style="sketch=0;points=[[0,0,0],[0.25,0,0],[0.5,0,0],[0.75,0,0],[1,0,0],[0,1,0],[0.25,1,0],[0.5,1,0],[0.75,1,0],[1,1,0],[0,0.25,0],[0,0.5,0],[0,0.75,0],[1,0.25,0],[1,0.5,0],[1,0.75,0]];outlineConnect=0;fontColor=#232F3E;gradientColor=#F78E04;gradientDirection=north;fillColor=#D05C17;strokeColor=#ffffff;dashed=0;verticalLabelPosition=bottom;verticalAlign=top;align=center;html=1;fontSize=12;fontStyle=0;aspect=fixed;shape=mxgraph.aws4.resourceIcon;resIcon=mxgraph.aws4.ec2;labelPosition=center;" vertex="1" parent="115">
                    <mxGeometry y="10" width="71" height="71" as="geometry"/>
                </mxCell>
                <mxCell id="117" value="" style="dashed=0;outlineConnect=0;html=1;align=center;labelPosition=center;verticalLabelPosition=bottom;verticalAlign=top;shape=mxgraph.weblogos.wordpress_2;fillColor=#00A7DA;strokeColor=none" vertex="1" parent="115">
                    <mxGeometry x="37.5" y="49" width="36" height="40" as="geometry"/>
                </mxCell>
                <mxCell id="139" value="" style="endArrow=classic;html=1;strokeWidth=3;entryX=0;entryY=0.5;entryDx=0;entryDy=0;entryPerimeter=0;" edge="1" parent="13" target="116">
                    <mxGeometry relative="1" as="geometry">
                        <mxPoint x="150" y="280" as="sourcePoint"/>
                        <mxPoint x="242" y="180" as="targetPoint"/>
                        <Array as="points">
                            <mxPoint x="150.25" y="242.32999999999998"/>
                        </Array>
                    </mxGeometry>
                </mxCell>
                <mxCell id="140" value="HTTP" style="edgeLabel;resizable=0;html=1;align=center;verticalAlign=middle;fillColor=#cf1794;gradientColor=#2004f6;fontSize=12;" connectable="0" vertex="1" parent="139">
                    <mxGeometry relative="1" as="geometry">
                        <mxPoint x="9" y="-4" as="offset"/>
                    </mxGeometry>
                </mxCell>
                <mxCell id="143" value="" style="endArrow=block;html=1;fontSize=12;fontColor=#000000;strokeWidth=3;endFill=1;" edge="1" parent="13">
                    <mxGeometry relative="1" as="geometry">
                        <mxPoint x="300.5" y="220" as="sourcePoint"/>
                        <mxPoint x="420.5" y="220" as="targetPoint"/>
                    </mxGeometry>
                </mxCell>
                <mxCell id="144" value="TCP3306" style="edgeLabel;resizable=0;html=1;align=center;verticalAlign=middle;rounded=0;strokeColor=#1A1A1A;fontSize=12;fontColor=#000000;" connectable="0" vertex="1" parent="143">
                    <mxGeometry relative="1" as="geometry"/>
                </mxCell>
                <mxCell id="148" value="" style="sketch=0;outlineConnect=0;fontColor=#232F3E;gradientColor=none;fillColor=#D45B07;strokeColor=none;dashed=0;verticalLabelPosition=middle;verticalAlign=middle;align=left;html=1;fontSize=12;fontStyle=0;aspect=fixed;pointerEvents=1;shape=mxgraph.aws4.auto_scaling2;strokeWidth=2;labelPosition=right;" vertex="1" parent="13">
                    <mxGeometry x="212.5" y="275" width="105" height="105" as="geometry"/>
                </mxCell>
                <mxCell id="152" value="&lt;b style=&quot;font-size: 17px;&quot;&gt;desired_capacity = 2&lt;br style=&quot;font-size: 17px;&quot;&gt;max_size&amp;nbsp; &amp;nbsp; &amp;nbsp; &amp;nbsp; &amp;nbsp; &amp;nbsp; &amp;nbsp;= 4&lt;br style=&quot;font-size: 17px;&quot;&gt;min_size&amp;nbsp; &amp;nbsp; &amp;nbsp; &amp;nbsp; &amp;nbsp; &amp;nbsp; &amp;nbsp; = 2&lt;br style=&quot;font-size: 17px;&quot;&gt;(希望2, 最大4, 最小2)&lt;/b&gt;" style="text;whiteSpace=wrap;html=1;fontSize=17;fillColor=#FF9933;strokeColor=#d79b00;align=center;verticalAlign=middle;" vertex="1" parent="13">
                    <mxGeometry x="-10" y="50" width="194" height="110" as="geometry"/>
                </mxCell>
                <mxCell id="17" value="Private subnet 2&amp;nbsp;&lt;br style=&quot;font-size: 13px;&quot;&gt;&lt;span style=&quot;color: rgb(36, 136, 20); font-size: 13px;&quot;&gt;&amp;nbsp;&lt;/span&gt;&lt;span style=&quot;border-color: var(--border-color); color: rgb(212, 212, 212); font-family: Consolas, &amp;quot;Courier New&amp;quot;, monospace; background-color: rgb(30, 30, 30); font-size: 13px;&quot;&gt;[&lt;/span&gt;&lt;span style=&quot;border-color: var(--border-color); font-family: Consolas, &amp;quot;Courier New&amp;quot;, monospace; background-color: rgb(30, 30, 30); color: rgb(206, 145, 120); font-size: 13px;&quot;&gt;&quot;10.0.4.0/24&quot;]&lt;/span&gt;" style="points=[[0,0],[0.25,0],[0.5,0],[0.75,0],[1,0],[1,0.25],[1,0.5],[1,0.75],[1,1],[0.75,1],[0.5,1],[0.25,1],[0,1],[0,0.75],[0,0.5],[0,0.25]];outlineConnect=0;gradientColor=none;html=1;whiteSpace=wrap;fontSize=13;fontStyle=1;container=1;pointerEvents=0;collapsible=0;recursiveResize=0;shape=mxgraph.aws4.group;grIcon=mxgraph.aws4.group_security_group;grStroke=0;strokeColor=#147EBA;fillColor=#E6F2F8;verticalAlign=bottom;align=right;spacingLeft=30;fontColor=#147EBA;dashed=0;" parent="1" vertex="1">
                    <mxGeometry x="610" y="430" width="192" height="290" as="geometry"/>
                </mxCell>
                <mxCell id="100" value="" style="endArrow=block;html=1;fontSize=12;fontColor=#000000;strokeWidth=3;endFill=1;" parent="17" edge="1">
                    <mxGeometry relative="1" as="geometry">
                        <mxPoint x="-61" y="157" as="sourcePoint"/>
                        <mxPoint x="59" y="157" as="targetPoint"/>
                    </mxGeometry>
                </mxCell>
                <mxCell id="101" value="TCP3306" style="edgeLabel;resizable=0;html=1;align=center;verticalAlign=middle;rounded=0;strokeColor=#1A1A1A;fontSize=12;fontColor=#000000;" parent="100" connectable="0" vertex="1">
                    <mxGeometry relative="1" as="geometry"/>
                </mxCell>
                <mxCell id="129" value="" style="group" vertex="1" connectable="0" parent="17">
                    <mxGeometry x="67.9" y="46" width="64.62857142857143" height="114.62857142857143" as="geometry"/>
                </mxCell>
                <mxCell id="130" value="" style="group" vertex="1" connectable="0" parent="129">
                    <mxGeometry y="17" width="64.62857142857143" height="97.62857142857143" as="geometry"/>
                </mxCell>
                <mxCell id="54" value="RDS [Slave]" style="sketch=0;points=[[0,0,0],[0.25,0,0],[0.5,0,0],[0.75,0,0],[1,0,0],[0,1,0],[0.25,1,0],[0.5,1,0],[0.75,1,0],[1,1,0],[0,0.25,0],[0,0.5,0],[0,0.75,0],[1,0.25,0],[1,0.5,0],[1,0.75,0]];outlineConnect=0;fontColor=#232F3E;gradientColor=#4D72F3;gradientDirection=north;fillColor=#3334B9;strokeColor=#ffffff;dashed=0;verticalLabelPosition=bottom;verticalAlign=top;align=center;html=1;fontSize=12;fontStyle=0;aspect=fixed;shape=mxgraph.aws4.resourceIcon;resIcon=mxgraph.aws4.rds;" parent="130" vertex="1">
                    <mxGeometry y="33" width="64.62857142857143" height="64.62857142857143" as="geometry"/>
                </mxCell>
                <mxCell id="55" value="" style="sketch=0;outlineConnect=0;fontColor=#232F3E;gradientColor=none;fillColor=#2E27AD;strokeColor=none;dashed=0;verticalLabelPosition=bottom;verticalAlign=top;align=center;html=1;fontSize=12;fontStyle=0;aspect=fixed;pointerEvents=1;shape=mxgraph.aws4.rds_mysql_instance;rounded=0;" parent="130" vertex="1">
                    <mxGeometry x="13.5" width="39.77142857142857" height="39.77142857142857" as="geometry"/>
                </mxCell>
                <mxCell id="135" value="" style="endArrow=block;html=1;fontSize=12;fontColor=#000000;strokeWidth=3;endFill=1;" edge="1" parent="17">
                    <mxGeometry relative="1" as="geometry">
                        <mxPoint x="-59.10000000000002" y="97" as="sourcePoint"/>
                        <mxPoint x="60.89999999999998" y="97" as="targetPoint"/>
                    </mxGeometry>
                </mxCell>
                <mxCell id="136" value="TCP3306" style="edgeLabel;resizable=0;html=1;align=center;verticalAlign=middle;rounded=0;strokeColor=#1A1A1A;fontSize=12;fontColor=#000000;" connectable="0" vertex="1" parent="135">
                    <mxGeometry relative="1" as="geometry"/>
                </mxCell>
                <mxCell id="40" value="" style="endArrow=block;html=1;fontSize=12;fontColor=#000000;strokeWidth=3;endFill=1;" parent="1" edge="1">
                    <mxGeometry relative="1" as="geometry">
                        <mxPoint x="80" y="399" as="sourcePoint"/>
                        <mxPoint x="180" y="399" as="targetPoint"/>
                    </mxGeometry>
                </mxCell>
                <mxCell id="41" value="HTTP" style="edgeLabel;resizable=0;html=1;align=center;verticalAlign=middle;rounded=0;strokeColor=#1A1A1A;fontSize=12;fontColor=#000000;" parent="40" connectable="0" vertex="1">
                    <mxGeometry relative="1" as="geometry"/>
                </mxCell>
                <mxCell id="72" value="" style="sketch=0;points=[[0,0,0],[0.25,0,0],[0.5,0,0],[0.75,0,0],[1,0,0],[0,1,0],[0.25,1,0],[0.5,1,0],[0.75,1,0],[1,1,0],[0,0.25,0],[0,0.5,0],[0,0.75,0],[1,0.25,0],[1,0.5,0],[1,0.75,0]];outlineConnect=0;fontColor=#232F3E;gradientColor=#2004f6;gradientDirection=north;fillColor=#cf1794;strokeColor=#ffffff;dashed=0;verticalLabelPosition=bottom;verticalAlign=top;align=center;html=1;fontSize=12;fontStyle=0;aspect=fixed;shape=mxgraph.aws4.resourceIcon;resIcon=mxgraph.aws4.elastic_load_balancing;horizontal=1;" parent="1" vertex="1">
                    <mxGeometry x="343" y="358.5" width="81.5" height="81.5" as="geometry"/>
                </mxCell>
                <mxCell id="82" value="" style="endArrow=classic;html=1;exitX=0.5;exitY=0;exitDx=0;exitDy=0;exitPerimeter=0;strokeWidth=3;" parent="1" source="72" target="2" edge="1">
                    <mxGeometry relative="1" as="geometry">
                        <mxPoint x="360" y="400" as="sourcePoint"/>
                        <mxPoint x="460" y="400" as="targetPoint"/>
                        <Array as="points">
                            <mxPoint x="384" y="290"/>
                        </Array>
                    </mxGeometry>
                </mxCell>
                <mxCell id="83" value="HTTP" style="edgeLabel;resizable=0;html=1;align=center;verticalAlign=middle;fillColor=#cf1794;gradientColor=#2004f6;fontSize=12;" parent="82" connectable="0" vertex="1">
                    <mxGeometry relative="1" as="geometry">
                        <mxPoint x="-12" y="30" as="offset"/>
                    </mxGeometry>
                </mxCell>
                <mxCell id="84" value="" style="endArrow=classic;html=1;exitX=0.5;exitY=1;exitDx=0;exitDy=0;exitPerimeter=0;entryX=0;entryY=0.5;entryDx=0;entryDy=0;entryPerimeter=0;strokeWidth=3;" parent="1" source="72" edge="1">
                    <mxGeometry relative="1" as="geometry">
                        <mxPoint x="360" y="400" as="sourcePoint"/>
                        <mxPoint x="466" y="619" as="targetPoint"/>
                        <Array as="points">
                            <mxPoint x="384" y="620"/>
                        </Array>
                    </mxGeometry>
                </mxCell>
                <mxCell id="85" value="HTTP" style="edgeLabel;resizable=0;html=1;align=center;verticalAlign=middle;fillColor=#cf1794;gradientColor=#2004f6;fontSize=12;" parent="84" connectable="0" vertex="1">
                    <mxGeometry relative="1" as="geometry">
                        <mxPoint y="-60" as="offset"/>
                    </mxGeometry>
                </mxCell>
                <mxCell id="105" value="" style="endArrow=block;html=1;fontSize=12;fontColor=#000000;strokeWidth=3;endFill=1;" parent="1" edge="1">
                    <mxGeometry relative="1" as="geometry">
                        <mxPoint x="243" y="398" as="sourcePoint"/>
                        <mxPoint x="343" y="398" as="targetPoint"/>
                    </mxGeometry>
                </mxCell>
                <mxCell id="106" value="HTTP" style="edgeLabel;resizable=0;html=1;align=center;verticalAlign=middle;rounded=0;strokeColor=#1A1A1A;fontSize=12;fontColor=#000000;" parent="105" connectable="0" vertex="1">
                    <mxGeometry relative="1" as="geometry"/>
                </mxCell>
                <mxCell id="23" value="SubnetGroup" style="dashed=1;verticalAlign=top;fontStyle=0;strokeWidth=2;fillColor=none;" parent="1" vertex="1">
                    <mxGeometry x="620" y="125" width="170" height="550" as="geometry"/>
                </mxCell>
                <mxCell id="33" value="クライアント" style="sketch=0;pointerEvents=1;shadow=0;dashed=0;html=1;strokeColor=none;fillColor=#505050;labelPosition=center;verticalLabelPosition=top;verticalAlign=bottom;outlineConnect=0;align=center;shape=mxgraph.office.devices.laptop;rounded=0;fontSize=12;fontColor=#000000;" parent="1" vertex="1">
                    <mxGeometry x="6" y="359" width="84" height="81" as="geometry"/>
                </mxCell>
                <mxCell id="59" value="SecurityGroup" style="rounded=1;arcSize=10;dashed=1;strokeColor=#ff0000;fillColor=none;gradientColor=none;dashPattern=8 4;strokeWidth=2;verticalAlign=top;" parent="1" vertex="1">
                    <mxGeometry x="650" y="160" width="119" height="480" as="geometry"/>
                </mxCell>
                <mxCell id="131" value="" style="group" vertex="1" connectable="0" parent="1">
                    <mxGeometry x="677.9" y="188" width="64.62857142857143" height="114.62857142857143" as="geometry"/>
                </mxCell>
                <mxCell id="132" value="" style="group" vertex="1" connectable="0" parent="131">
                    <mxGeometry y="17" width="64.62857142857143" height="97.62857142857143" as="geometry"/>
                </mxCell>
                <mxCell id="133" value="RDS [Slave]" style="sketch=0;points=[[0,0,0],[0.25,0,0],[0.5,0,0],[0.75,0,0],[1,0,0],[0,1,0],[0.25,1,0],[0.5,1,0],[0.75,1,0],[1,1,0],[0,0.25,0],[0,0.5,0],[0,0.75,0],[1,0.25,0],[1,0.5,0],[1,0.75,0]];outlineConnect=0;fontColor=#232F3E;gradientColor=#4D72F3;gradientDirection=north;fillColor=#3334B9;strokeColor=#ffffff;dashed=0;verticalLabelPosition=bottom;verticalAlign=top;align=center;html=1;fontSize=12;fontStyle=0;aspect=fixed;shape=mxgraph.aws4.resourceIcon;resIcon=mxgraph.aws4.rds;" vertex="1" parent="132">
                    <mxGeometry y="33" width="64.62857142857143" height="64.62857142857143" as="geometry"/>
                </mxCell>
                <mxCell id="134" value="" style="sketch=0;outlineConnect=0;fontColor=#232F3E;gradientColor=none;fillColor=#2E27AD;strokeColor=none;dashed=0;verticalLabelPosition=bottom;verticalAlign=top;align=center;html=1;fontSize=12;fontStyle=0;aspect=fixed;pointerEvents=1;shape=mxgraph.aws4.rds_mysql_instance;rounded=0;" vertex="1" parent="132">
                    <mxGeometry x="13.5" width="39.77142857142857" height="39.77142857142857" as="geometry"/>
                </mxCell>
                <mxCell id="137" value="" style="endArrow=block;html=1;fontSize=12;fontColor=#000000;strokeWidth=3;endFill=1;" edge="1" parent="1">
                    <mxGeometry relative="1" as="geometry">
                        <mxPoint x="551" y="225.5" as="sourcePoint"/>
                        <mxPoint x="671" y="225.5" as="targetPoint"/>
                    </mxGeometry>
                </mxCell>
                <mxCell id="138" value="TCP3306" style="edgeLabel;resizable=0;html=1;align=center;verticalAlign=middle;rounded=0;strokeColor=#1A1A1A;fontSize=12;fontColor=#000000;" connectable="0" vertex="1" parent="137">
                    <mxGeometry relative="1" as="geometry"/>
                </mxCell>
                <mxCell id="145" value="Cloudwatch" style="sketch=0;points=[[0,0,0],[0.25,0,0],[0.5,0,0],[0.75,0,0],[1,0,0],[0,1,0],[0.25,1,0],[0.5,1,0],[0.75,1,0],[1,1,0],[0,0.25,0],[0,0.5,0],[0,0.75,0],[1,0.25,0],[1,0.5,0],[1,0.75,0]];points=[[0,0,0],[0.25,0,0],[0.5,0,0],[0.75,0,0],[1,0,0],[0,1,0],[0.25,1,0],[0.5,1,0],[0.75,1,0],[1,1,0],[0,0.25,0],[0,0.5,0],[0,0.75,0],[1,0.25,0],[1,0.5,0],[1,0.75,0]];outlineConnect=0;fontColor=#232F3E;gradientColor=#F34482;gradientDirection=north;fillColor=#BC1356;strokeColor=#ffffff;dashed=0;verticalLabelPosition=middle;verticalAlign=middle;align=left;html=1;fontSize=17;fontStyle=1;aspect=fixed;shape=mxgraph.aws4.resourceIcon;resIcon=mxgraph.aws4.cloudwatch_2;strokeWidth=2;labelPosition=right;" vertex="1" parent="1">
                    <mxGeometry x="10" y="30" width="90" height="90" as="geometry"/>
                </mxCell>
                <mxCell id="146" value="CPU70%以上" style="sketch=0;outlineConnect=0;fontColor=#232F3E;gradientColor=none;fillColor=#B0084D;strokeColor=none;dashed=0;verticalLabelPosition=middle;verticalAlign=middle;align=left;html=1;fontSize=17;fontStyle=1;aspect=fixed;pointerEvents=1;shape=mxgraph.aws4.alarm;strokeWidth=2;labelPosition=right;" vertex="1" parent="1">
                    <mxGeometry x="25" y="128" width="60" height="60" as="geometry"/>
                </mxCell>
                <mxCell id="147" value="CPU30%以下" style="sketch=0;outlineConnect=0;fontColor=#232F3E;gradientColor=none;fillColor=#B0084D;strokeColor=none;dashed=0;verticalLabelPosition=middle;verticalAlign=middle;align=left;html=1;fontSize=17;fontStyle=1;aspect=fixed;pointerEvents=1;shape=mxgraph.aws4.alarm;strokeWidth=2;labelPosition=right;" vertex="1" parent="1">
                    <mxGeometry x="25" y="188" width="60" height="60" as="geometry"/>
                </mxCell>
                <mxCell id="32" value="" style="sketch=0;outlineConnect=0;strokeColor=#9673a6;fillColor=#e1d5e7;dashed=0;verticalLabelPosition=bottom;verticalAlign=top;align=center;html=1;fontSize=12;fontStyle=0;aspect=fixed;shape=mxgraph.aws4.resourceIcon;resIcon=mxgraph.aws4.internet_gateway;rounded=0;labelPosition=center;" parent="1" vertex="1">
                    <mxGeometry x="180" y="359" width="71" height="71" as="geometry"/>
                </mxCell>
            </root>
        </mxGraphModel>
    </diagram>
</mxfile>